<mxfile host="app.diagrams.net" modified="2023-07-28T17:39:31.207Z" agent="Mozilla/5.0 (Windows NT 10.0; Win64; x64) AppleWebKit/537.36 (KHTML, like Gecko) Chrome/115.0.0.0 Safari/537.36" version="21.6.5" etag="QDhNHLIC0Kqc9QZanLay" type="github">
  <diagram name="PÃ¡gina-1" id="9QqNGuEV6jSO2LF3-JXy">
    <mxGraphModel>
      <root>
        <mxCell id="0" />
        <mxCell id="1" parent="0" />
      </root>
    </mxGraphModel>
  </diagram>
</mxfile>
